<?xml version="1.0" encoding="utf-8"?>
<!-- Generator: Adobe Illustrator 23.0.2, SVG Export Plug-In . SVG Version: 6.00 Build 0)  -->
<svg version="1.1" id="Layer_1" xmlns="http://www.w3.org/2000/svg" xmlns:xlink="http://www.w3.org/1999/xlink" x="0px" y="0px"
	 viewBox="0 0 149.2 165.5" style="enable-background:new 0 0 149.2 165.5;" xml:space="preserve">
<style type="text/css">
	.st0{fill:#7C3AED;}
	.st1{fill:#9A7EE8;}
</style>
<g>
	<path class="st0" d="M0.3,0.7c1,0.4,1.8,1,2.4,1.9c5.1,6.3,10.1,12.6,15.6,18.6c5.7,7.9,13,14.4,19.6,21.4
		c11.4,12.3,23.4,24,34.7,36.4c2.8-1.2,4.5-4,6.8-6c5.7-6.3,11.7-12.3,17.7-18.4c5.2-6.1,11.4-11.3,16.5-17.4c6-6.1,12-12,17.7-18.4
		C137.6,13,143,6.2,149.2,0.3c0.1,13.5-0.1,26.9-0.1,40.4c-18,17-35.9,34-53.8,51.1c-8,7.4-15.9,14.9-23.2,23
		C62,104.8,52.2,94.4,42,84.5c-5.7-6.2-11.6-12.2-17.9-17.8c-0.2,31.4-0.1,62.9,0.2,94.3c0.2,1.4,0.3,2.9,0.4,4.4
		c-8.2,0.3-16.5,0.1-24.7,0.1C0,110.5,0.2,55.6,0.3,0.7z"/>
	<path class="st0" d="M144,110.4c1.6-1.3,3.1-2.8,5-3.6c0,19.6,0.1,39.1,0,58.7c-8.1,0-16.2,0-24.2,0c0-13.2-0.2-26.5,0.1-39.7
		C131.2,120.6,137.9,115.8,144,110.4z"/>
</g>
<g>
	<path class="st1" d="M132.8,71.3c5.6-4.9,10.3-11,16.2-15.5c0.1,11.9,0.1,23.8,0,35.7c-25.6,24.4-50.9,49.2-76.5,73.5
		c-0.4-0.1-1.2-0.4-1.5-0.5c-11.2-11.1-22.1-22.5-33.3-33.7c-0.7-0.9-2-1.6-1.8-2.9c0.1-12.4-0.1-24.7,0.1-37.1
		c4,3.2,6.8,7.7,10.6,11.1c8.9,9.2,17.5,18.6,26.4,27.8C93.2,110.6,112.8,90.7,132.8,71.3z"/>
</g>
</svg>
